HIERARCHY
ROOT Hips
{
  OFFSET 1.44925e-005 102.336 -0.101585
  CHANNELS 6 Xposition Yposition Zposition Zrotation Xrotation Yrotation
  JOINT LeftUpLeg
  {
    OFFSET 8.9458 -8.66707 0.101652
    CHANNELS 3 Zrotation Xrotation Yrotation
    JOINT LeftLeg
    {
      OFFSET 0 -44.4227 1.3727
      CHANNELS 3 Zrotation Xrotation Yrotation
      JOINT LeftFoot
      {
        OFFSET -0.253549 -42.0924 -1.46059
        CHANNELS 3 Zrotation Xrotation Yrotation
        JOINT LeftToes
        {
          OFFSET -0.04 -4.41509 8.4991
          CHANNELS 3 Zrotation Xrotation Yrotation
          End Site
          {
            OFFSET 0.08 -0.047448 9.77979
          }
        }
      }
    }
  }
  JOINT Spine
  {
    OFFSET 0 11.8905 0
    CHANNELS 3 Zrotation Xrotation Yrotation
    JOINT Spine1
    {
      OFFSET 0 25.6574 0.127663
      CHANNELS 3 Zrotation Xrotation Yrotation
      JOINT RightShoulder
      {
        OFFSET -8.99 -0.362252 -0.22
        CHANNELS 3 Zrotation Xrotation Yrotation
        JOINT RightArm
        {
          OFFSET -10.2827 -0.00338 0.322123
          CHANNELS 3 Zrotation Xrotation Yrotation
          JOINT RightForeArm
          {
            OFFSET -26.364 0.099144 -1.42434
            CHANNELS 3 Zrotation Xrotation Yrotation
            JOINT RightHand
            {
              OFFSET -22.0324 0.085362 1.02216
              CHANNELS 3 Zrotation Xrotation Yrotation
              End Site
              {
                OFFSET -13.3284 -0.6 1.50291
              }
            }
          }
        }
      }
      JOINT LeftShoulder1
      {
        OFFSET 8.99 -0.362252 -0.22
        CHANNELS 3 Zrotation Xrotation Yrotation
        JOINT LeftArm
        {
          OFFSET 10.2827 -0.00337999 0.322123
          CHANNELS 3 Zrotation Xrotation Yrotation
          JOINT LeftForeArm
          {
            OFFSET 26.2597 0.099144 -1.42434
            CHANNELS 3 Zrotation Xrotation Yrotation
            JOINT LeftHand
            {
              OFFSET 22.0902 0.085362 1.02216
              CHANNELS 3 Zrotation Xrotation Yrotation
              End Site
              {
                OFFSET 13.419 -0.6 1.50291
              }
            }
          }
        }
      }
      JOINT Head
      {
        OFFSET 0 8.73416 0.011341
        CHANNELS 3 Zrotation Xrotation Yrotation
        End Site
        {
          OFFSET -0.29 12.7742 2.51395
        }
      }
    }
  }
  JOINT RightUpLeg
  {
    OFFSET -8.9458 -8.66707 0.101652
    CHANNELS 3 Zrotation Xrotation Yrotation
    JOINT RightLeg
    {
      OFFSET 0 -44.4227 1.3727
      CHANNELS 3 Zrotation Xrotation Yrotation
      JOINT RightFoot
      {
        OFFSET 0.253549 -42.0924 -1.46059
        CHANNELS 3 Zrotation Xrotation Yrotation
        JOINT RightToes
        {
          OFFSET 0.04 -4.41509 8.4991
          CHANNELS 3 Zrotation Xrotation Yrotation
          End Site
          {
            OFFSET -0.08 -0.137448 9.77979
          }
        }
      }
    }
  }
}
MOTION
Frames:	14
Frame Time:	0.0333333
11.6142 100.368 0.680026 -5.64459 5.27088 -85.4529 6.29631 13.5729 6.69677 2.2572 12.3525 17.7153 -10.5066 -22.7764 -1.31049 -1.28123e-009 8.75252e-006 -1.47156e-008 8.23587 13.4542 -2.19163 -0.988793 0.322337 -1.06154 34.8738 1.78939 0.334755 43.6378 -17.3253 12.1593 6.07457 29.4148 13.0236 -6.02394 9.7269 -1.74828 -45.4133 3.55722 -3.31326 -24.7305 -8.1197 -4.44006 1.33841 27.6137 -26.7195 5.82328 9.61819 -0.917488 0.113208 -12.2927 -5.56609 6.24939 -6.49957 0.753446 1.64336 12.6747 -11.3248 2.62982 -6.85311 -0.177706 0.0462048 0.000530888 0.662642 
11.5786 100.33 0.716259 -5.82341 5.45375 -85.2884 6.52497 13.5634 6.64873 2.34446 12.7383 17.5467 -10.5492 -23.0492 -1.34145 -1.28123e-009 8.75252e-006 -1.47156e-008 8.57699 13.4058 -2.29814 -1.01123 0.466843 -1.13305 34.7189 1.79082 0.35307 42.982 -13.6088 11.4317 5.05566 24.3583 16.3006 -6.33786 9.71032 -1.59888 -45.1586 3.52954 -3.29702 -24.9646 -8.3095 -4.7505 1.62458 27.9583 -27.392 5.82328 9.61819 -0.917488 0.154929 -12.2328 -5.41021 6.42788 -6.26113 0.8328 1.65797 12.6098 -11.6569 2.76063 -6.96864 -0.1791 0.0462048 0.000530888 0.662642 
11.6712 100.279 0.778628 -5.66218 5.53791 -85.1001 6.5671 12.9438 6.23245 2.45743 13.4832 17.7399 -10.7826 -23.5271 -1.41917 -1.28123e-009 8.75252e-006 -1.47156e-008 8.9173 12.6388 -2.33318 -1.16923 1.32103 -1.15637 34.5474 1.78066 0.344645 42.5205 -10.6873 10.911 4.08218 20.6507 19.5835 -6.40354 9.71323 -1.70789 -44.8201 3.49564 -3.28071 -25.2028 -8.24452 -5.36081 1.93824 28.3684 -27.8617 5.82328 9.61819 -0.917488 0.156998 -12.4941 -5.38235 6.37609 -6.68176 0.759947 1.79713 12.9422 -11.7791 3.00012 -7.04852 -0.181087 0.0462048 0.000530888 0.662642 
12.0153 100.194 0.883844 -5.6291 5.33045 -84.8359 6.11556 12.0839 5.00295 2.69566 14.7282 18.7839 -11.0205 -24.0594 -1.50483 -1.28123e-009 8.75252e-006 -1.47156e-008 9.10412 12.3235 -2.40118 -1.40586 1.95475 -1.17679 34.466 1.76946 0.324794 42.1324 -9.59368 10.3701 3.67979 18.7652 22.4809 -6.68898 9.70578 -1.7432 -44.7938 3.48597 -3.26577 -24.9986 -8.0573 -6.06966 2.40882 29.009 -28.3328 5.82328 9.61819 -0.917488 0.235607 -12.7264 -5.34607 5.84618 -7.43375 0.227925 2.12885 13.934 -11.543 2.94674 -6.98679 -0.183715 0.0462048 0.000530888 0.662642 
12.6859 100.06 0.999803 -6.17531 4.76339 -84.6003 5.20071 11.4896 3.09912 2.85321 16.4119 20.5962 -10.9394 -24.5527 -1.54006 -1.28123e-009 8.75252e-006 -1.47156e-008 8.84912 13.2116 -2.54524 -1.50215 1.9991 -1.25801 34.3407 1.76629 0.330289 41.88 -9.75743 9.88623 4.33029 17.7553 24.1362 -7.92408 9.65425 -1.53597 -45.0748 3.50045 -3.25315 -24.3295 -7.5762 -6.78619 2.74411 29.4376 -28.7285 5.82328 9.61819 -0.917488 0.411358 -12.7205 -5.10211 4.92098 -7.94695 -0.681809 2.36748 15.3815 -11.1458 2.90728 -6.84583 -0.187112 0.0462048 0.000530888 0.662642 
13.6992 99.919 1.11581 -7.00334 3.91377 -84.7076 4.01764 11.1025 1.55741 2.70397 18.0393 22.3334 -10.5446 -25.0068 -1.52134 -1.28123e-009 8.75252e-006 -1.47156e-008 8.17115 14.68 -2.65453 -1.62442 1.87838 -1.32708 34.0766 1.76556 0.359939 41.9192 -9.02761 9.49831 5.55772 15.6145 24.3019 -9.74214 9.57978 -1.34467 -45.3223 3.50782 -3.23176 -23.4056 -6.45124 -7.74387 2.51315 29.0872 -28.7009 5.82328 9.61819 -0.917488 0.585068 -12.5463 -4.6915 3.80257 -8.44207 -1.95138 2.13019 17.0114 -9.85674 3.39877 -6.61713 -0.196322 0.0462048 0.000530888 0.662642 
15.0874 99.8422 1.27788 -7.61291 2.78577 -85.2737 2.51755 10.581 1.17619 2.42165 19.0917 23.3251 -10.0541 -25.2693 -1.46698 -1.28123e-009 8.75252e-006 -1.47156e-008 7.24663 15.9087 -2.66026 -2.11956 2.01552 -1.30619 33.9379 1.76624 0.372279 42.3573 -8.21714 8.9863 6.61972 13.3708 23.5604 -11.0972 9.53768 -1.40827 -45.4292 3.48896 -3.18043 -22.193 -4.53132 -9.46222 1.62875 27.8836 -27.8164 5.82328 9.61819 -0.917488 0.681633 -12.4402 -4.27122 2.42141 -9.36307 -3.51583 1.50699 18.5016 -7.18553 3.82081 -5.94161 -0.21727 0.0462048 0.000530888 0.662642 
16.9233 99.8486 1.51463 -8.03399 1.33519 -86.0784 0.610326 9.85108 1.51117 2.15607 19.5424 23.9467 -9.51232 -25.0379 -1.36096 -1.28123e-009 8.75252e-006 -1.47156e-008 5.88743 16.9105 -2.61587 -2.73016 2.57801 -1.30452 34.1468 1.76779 0.351398 42.7978 -7.39581 8.26986 7.28997 11.5716 22.5461 -11.6163 9.54365 -1.67101 -45.404 3.44436 -3.09861 -20.6549 -1.86967 -12.4439 0.294128 25.946 -25.7743 5.82328 9.61819 -0.917488 0.795163 -12.6611 -3.76476 0.61512 -10.312 -4.95671 1.02583 19.0443 -4.52942 3.63617 -4.45821 -0.250256 0.0462048 0.000530888 0.662642 
19.2478 99.925 1.80402 -8.32158 -0.179785 -87.0728 -1.33775 8.78506 2.19998 1.77378 19.6264 24.5213 -8.98167 -24.2397 -1.21468 -1.28123e-009 8.75252e-006 -1.47156e-008 3.86986 17.7598 -2.50553 -2.85502 3.63658 -1.4259 34.4224 1.77179 0.334786 43.0564 -5.773 7.59039 7.6787 10.3429 21.3351 -11.6558 9.58037 -2.08385 -44.988 3.37711 -3.0275 -19.1616 0.479136 -16.6217 -1.21387 24.1739 -22.8896 5.82328 9.61819 -0.917488 1.16618 -13.3032 -2.92783 -1.44747 -10.7902 -5.59626 1.07127 17.6872 -3.47022 4.96453 -2.29794 -0.374387 0.0462048 0.000530888 0.662642 
21.9962 100.052 2.1348 -8.05086 -1.38514 -88.5925 -2.65538 6.88627 3.47934 1.05494 19.5501 25.0335 -8.827 -23.2391 -1.11478 -1.28123e-009 8.75252e-006 -1.47156e-008 1.78026 18.0245 -2.25944 -2.68265 4.93698 -1.48863 34.3853 1.78078 0.360616 43.4859 -3.78081 6.94158 7.81767 10.6638 19.7969 -11.6096 9.62408 -2.54546 -44.1132 3.30097 -3.00157 -18.5224 -0.270712 -21.1421 -2.73777 25.3287 -20.0602 5.82328 9.61819 -0.917488 1.88598 -14.2394 -1.6895 -3.33297 -11.2725 -5.31305 1.4289 14.3459 -2.80331 11.3361 0.008008 -0.897333 0.0462048 0.000530888 0.662642 
25.0162 100.132 2.49852 -7.21983 -1.83916 -90.7895 -3.17018 4.08053 4.93123 0.046063 19.7665 26.1669 -9.25607 -22.5108 -1.11759 -1.28123e-009 8.75252e-006 -1.47156e-008 0.504352 17.6892 -1.94071 -3.12486 6.08989 -1.21724 34.0584 1.79884 0.437513 44.4234 -2.85126 6.18824 7.74758 13.3006 17.906 -11.7601 9.63149 -2.66714 -43.2532 3.2386 -2.99914 -18.2027 -2.70655 -25.1392 -3.80619 27.7192 -18.1844 5.82328 9.61819 -0.917488 2.61167 -15.3824 -0.111187 -4.73108 -12.4069 -5.04409 1.74725 10.7761 -0.204399 22.3635 1.48503 -1.90684 0.0462048 0.000530888 0.662642 
28.2002 100.174 2.84155 -6.85937 -1.59831 -94.0237 -3.22953 1.53755 5.68473 -0.776113 20.2539 28.6266 -9.63309 -21.8347 -1.11249 -1.28123e-009 8.75252e-006 -1.47156e-008 0.251933 17.6558 -1.69596 -4.33014 7.36642 -0.662259 33.583 1.82807 0.559015 45.8599 -4.64972 5.93653 7.80808 18.855 15.1567 -11.9834 9.59388 -2.32371 -42.5562 3.19322 -3.00695 -17.879 -5.69333 -28.427 -4.2526 29.2929 -17.2633 5.82328 9.61819 -0.917488 2.88431 -16.7511 1.92186 -5.19098 -13.9047 -5.08596 1.8053 10.3874 2.39853 30.5123 0.76474 -2.40245 0.0462048 0.000530888 0.662642 
31.4968 100.39 3.11865 -7.70552 -0.860112 -97.3018 -2.87435 0.487413 5.8745 -1.005 20.1902 31.6523 -9.05696 -20.5288 -0.939124 -1.28123e-009 8.75252e-006 -1.47156e-008 0.703714 18.5195 -1.58866 -5.34559 9.24878 -0.162325 32.9906 1.85601 0.692461 47.6114 -9.89116 6.9137 8.55588 27.9459 10.9142 -11.6389 9.5742 -2.01134 -41.4632 3.13752 -3.05079 -18.9613 -10.0484 -31.098 -4.48975 30.4887 -16.5346 5.82328 9.61819 -0.917488 2.75699 -17.9069 4.52679 -4.11683 -15.139 -5.29495 0.839633 16.0252 0.874942 29.2032 -2.30206 -1.56225 0.0462048 0.000530888 0.662642 
34.6686 100.65 3.27328 -9.06375 0.260795 -100.179 -2.16558 0.288384 6.15925 -0.962253 19.8499 34.0006 -7.84665 -18.9273 -0.691748 -1.28123e-009 8.75252e-006 -1.47156e-008 0.915575 19.6381 -1.53561 -5.63723 10.7778 0.0297402 32.6262 1.86763 0.762055 49.0138 -15.9633 8.17095 10.0192 37.8174 5.99477 -10.7495 9.60383 -2.05398 -40.0807 3.06917 -3.11158 -21.0465 -14.4333 -32.5532 -4.55617 30.9583 -16.0552 5.82328 9.61819 -0.917488 2.66914 -17.8036 7.32041 -2.31285 -15.7698 -4.60986 -0.832101 26.5817 -5.54706 22.1442 -6.00129 -0.485645 0.0462048 0.000530888 0.662642 
